<svg width="150" height="150" viewBox="0 0 150 150" fill="none" xmlns="http://www.w3.org/2000/svg">
<g opacity="0.6">
<path d="M50.1404 26.7832L46.332 18.3999L51.6654 15.9666L52.232 17.2249L48.332 19.0082L49.4654 21.5082L53.1404 19.8416L53.6987 21.0832L50.0237 22.7499L51.5737 26.1499L50.1404 26.7832Z" fill="#424928"/>
<path d="M60.2419 23.025C57.8502 23.7 55.6169 22.25 54.8669 19.6083C54.1169 16.9667 55.2586 14.55 57.6586 13.875C60.0586 13.2 62.3002 14.6333 63.0502 17.2917C63.8002 19.95 62.6419 22.35 60.2419 23.025ZM58.0336 15.2167C56.4752 15.6583 55.8502 17.3 56.3669 19.175C56.8836 21.05 58.2919 22.125 59.8502 21.675C61.4086 21.225 62.0502 19.5833 61.5169 17.7083C60.9836 15.8333 59.5919 14.775 58.0336 15.2167Z" fill="#424928"/>
<path d="M64.3418 12.45L65.8918 12.2583L66.8585 20L71.2501 19.45L71.4251 20.8333L65.4835 21.5666L64.3418 12.45Z" fill="#424928"/>
<path d="M72.8004 11.5833H74.3587L74.2337 19.3916L78.6504 19.4666V20.8583L72.6504 20.8333L72.8004 11.5833Z" fill="#424928"/>
<path d="M83.1577 21.6001C80.6577 21.2251 79.2577 18.9751 79.6744 16.2584C80.091 13.5417 82.116 11.8251 84.5827 12.1917C87.0494 12.5584 88.491 14.8084 88.0827 17.5334C87.6744 20.2584 85.616 21.9667 83.1577 21.6001ZM84.3744 13.5751C82.7744 13.3334 81.5244 14.5667 81.2327 16.4917C80.941 18.4167 81.766 20.0001 83.3327 20.2167C84.8994 20.4334 86.1994 19.2251 86.491 17.3001C86.7827 15.3751 85.9744 13.8167 84.3744 13.5751Z" fill="#424928"/>
<path d="M96.5846 15.3917L95.9846 22.3667L99.793 16.5334L101.21 17.0334L95.9263 24.9417L94.568 24.4584L95.1096 17.6751L91.2596 23.3001L89.918 22.8334L90.7513 13.3584L92.193 13.8667L91.493 20.8334L95.393 15.0001L96.5846 15.3917Z" fill="#424928"/>
<path d="M107.283 31.6667C105.283 30.1834 105.083 27.5 106.724 25.3167C108.366 23.1334 110.974 22.5584 112.974 24.05C114.974 25.5417 115.191 28.2167 113.541 30.4084C111.891 32.6 109.274 33.175 107.283 31.6667ZM112.133 25.1667C110.841 24.2 109.149 24.7 107.966 26.2667C106.783 27.8334 106.799 29.6 108.099 30.55C109.399 31.5 111.091 31.0334 112.266 29.4667C113.441 27.9 113.433 26.1584 112.133 25.1834V25.1667Z" fill="#424928"/>
<path d="M114.167 32.2749L118.159 28.4415L119.234 29.5665L115.367 33.2832C114.084 34.5082 114.009 35.6249 114.967 36.6165C115.926 37.6082 117.034 37.5832 118.301 36.3582L122.176 32.6415L123.251 33.7665L119.251 37.6082C117.434 39.3582 115.467 39.1749 113.942 37.6082C112.417 36.0415 112.334 34.0332 114.167 32.2749Z" fill="#424928"/>
<path d="M121.509 40.4666L118.45 42.6166L117.559 41.3416L125.059 36.0416L127.1 38.95C128.192 40.5083 128.117 42.0666 126.642 43.1166C126.385 43.3229 126.089 43.4762 125.772 43.5678C125.456 43.6594 125.124 43.6874 124.796 43.6502C124.469 43.613 124.151 43.5114 123.863 43.3512C123.575 43.191 123.321 42.9753 123.117 42.7166L121.55 47.0833L120.534 45.6333L122.117 41.3916L121.509 40.4666ZM122.575 39.7166L123.709 41.325C123.811 41.4934 123.947 41.6389 124.108 41.7522C124.269 41.8654 124.452 41.9441 124.645 41.9831C124.838 42.0221 125.037 42.0207 125.23 41.9789C125.422 41.9371 125.604 41.8558 125.763 41.7402C125.923 41.6246 126.057 41.4772 126.156 41.3073C126.256 41.1374 126.319 40.9487 126.342 40.753C126.365 40.5574 126.348 40.3591 126.29 40.1707C126.233 39.9822 126.137 39.8078 126.009 39.6583L124.884 38.0583L122.575 39.7166Z" fill="#424928"/>
<path d="M127.658 53.4666C127.476 53.5281 127.309 53.6266 127.167 53.7558C127.025 53.8851 126.911 54.0423 126.833 54.2176C126.754 54.393 126.713 54.5826 126.712 54.7746C126.71 54.9666 126.749 55.1568 126.824 55.3333C127.199 56.3166 127.933 56.5833 129.158 56.1666L134.808 54.0583L135.349 55.5166L129.699 57.6249C127.649 58.3916 126.166 57.6249 125.533 55.8916C125.363 55.5349 125.268 55.147 125.255 54.7521C125.243 54.3572 125.311 53.9639 125.458 53.5969C125.604 53.2299 125.825 52.8972 126.106 52.6195C126.387 52.3418 126.722 52.1252 127.091 51.9833L127.658 53.4666Z" fill="#424928"/>
<path d="M127.857 63.8167C127.349 61.3834 128.949 59.2501 131.632 58.6834C134.316 58.1167 136.632 59.4251 137.157 61.8584C137.682 64.2917 136.091 66.4334 133.391 67.0084C130.691 67.5834 128.374 66.2501 127.857 63.8167ZM135.799 62.1501C135.466 60.5667 133.866 59.8334 131.957 60.2334C130.049 60.6334 128.891 61.9501 129.224 63.5667C129.557 65.1834 131.157 65.9001 133.066 65.5001C134.974 65.1001 136.132 63.7334 135.832 62.1417L135.799 62.1501Z" fill="#424928"/>
<path d="M132.632 68.8L138.157 68.5667L138.232 70.125L132.857 70.3583C131.091 70.4333 130.299 71.1917 130.357 72.5917C130.416 73.9917 131.274 74.6917 133.041 74.6167L138.407 74.3833L138.474 75.9416L132.924 76.1833C130.424 76.2833 129.057 74.8583 128.966 72.65C128.874 70.4417 130.099 68.9083 132.632 68.8Z" fill="#424928"/>
<path d="M132.734 79.7999L129.017 79.3915L129.184 77.8416L138.35 78.8416L137.967 82.3749C137.759 84.2665 136.667 85.3916 134.884 85.1916C134.554 85.1766 134.231 85.0967 133.933 84.9565C133.635 84.8163 133.368 84.6186 133.146 84.3746C132.925 84.1307 132.754 83.8454 132.643 83.5351C132.532 83.2248 132.483 82.8956 132.5 82.5666L128.434 84.8082L128.625 83.0499L132.617 80.8999L132.734 79.7999ZM134.025 79.9415L133.817 81.8915C133.7 82.9249 134.192 83.5582 135.042 83.6582C135.892 83.7582 136.509 83.2249 136.617 82.1999L136.834 80.2416L134.025 79.9415Z" fill="#424928"/>
<path d="M126.283 92.8833L126.6 91.7249L134.308 88.9499L127.842 87.1749L128.233 85.7333L137.117 88.1583L136.733 89.5749L129.392 92.1749L135.558 93.8416L135.167 95.2916L126.283 92.8833Z" fill="#424928"/>
<path d="M131.617 103.675L130.359 103.117L132.184 99.0251L130.001 98.0334L128.334 101.742L127.084 101.192L128.751 97.4751L126.342 96.4001L124.517 100.5L123.242 99.9334L125.684 94.4418L134.092 98.1834L131.617 103.675Z" fill="#424928"/>
<path d="M127.275 110.925L126.392 112.325L123.509 106.533L120.4 104.567L121.234 103.258L124.342 105.225L130.8 105.375L129.892 106.808L125.1 106.667L127.275 110.925Z" fill="#424928"/>
<path d="M98.4661 123.908L102.041 132.392L96.6161 134.667L96.0828 133.4L100.066 131.733L99.0078 129.233L95.2911 130.8L94.7578 129.542L98.4828 127.975L97.0328 124.533L98.4661 123.908Z" fill="#424928"/>
<path d="M88.2673 127.375C90.6757 126.767 92.8757 128.283 93.5423 130.95C94.209 133.617 93.009 135.992 90.5923 136.6C88.1757 137.208 85.9757 135.708 85.3007 133.033C84.6257 130.358 85.834 127.983 88.2673 127.375ZM90.2507 135.25C91.8257 134.85 92.5007 133.225 92.0173 131.333C91.534 129.442 90.1757 128.333 88.609 128.733C87.0423 129.133 86.3507 130.758 86.8257 132.65C87.3007 134.542 88.684 135.642 90.2507 135.25Z" fill="#424928"/>
<path d="M83.8744 137.817L82.3244 137.967L81.5744 130.192L77.1744 130.617L77.041 129.225L82.991 128.65L83.8744 137.817Z" fill="#424928"/>
<path d="M75.4246 138.433L73.8663 138.375L74.1496 130.567L69.7246 130.408L69.7746 129.008L75.7579 129.233L75.4246 138.433Z" fill="#424928"/>
<path d="M65.3172 128.15C67.7672 128.6 69.1422 130.883 68.6505 133.592C68.1588 136.3 66.0755 137.958 63.6505 137.508C61.2255 137.058 59.8172 134.792 60.3172 132.075C60.8172 129.358 62.8672 127.708 65.3172 128.15ZM63.8755 136.142C65.4672 136.425 66.7505 135.225 67.1005 133.308C67.4505 131.392 66.6672 129.817 65.0755 129.525C63.4838 129.233 62.1755 130.433 61.8338 132.358C61.4922 134.283 62.2838 135.833 63.8755 136.142Z" fill="#424928"/>
<path d="M51.7336 133.975L52.5669 127.017L48.5836 132.758L47.1836 132.217L52.6919 124.467L54.0419 124.975L53.3086 131.75L57.3169 126.233L58.6503 126.742L57.5003 136.192L56.0753 135.65L56.9086 128.717L52.8419 134.425L51.7336 133.975Z" fill="#424928"/>
<path d="M41.4988 117.375C43.4488 118.925 43.5738 121.583 41.8738 123.742C40.1738 125.9 37.5488 126.375 35.5905 124.833C33.6322 123.292 33.4905 120.625 35.2072 118.458C36.9238 116.292 39.5405 115.833 41.4988 117.375ZM36.4988 123.742C37.7738 124.742 39.4738 124.292 40.6655 122.758C41.8572 121.225 41.9238 119.475 40.6655 118.467C39.4072 117.458 37.6822 117.908 36.4988 119.442C35.3155 120.975 35.1905 122.733 36.4572 123.742H36.4988Z" fill="#424928"/>
<path d="M34.6339 116.592L30.5339 120.317L29.4839 119.167L33.4672 115.558C34.7755 114.367 34.8839 113.258 33.9589 112.225C33.0339 111.192 31.9089 111.2 30.6255 112.392L26.6672 116L25.6172 114.842L29.7255 111.117C31.5922 109.45 33.5505 109.65 35.0339 111.283C36.5172 112.917 36.5089 114.892 34.6339 116.592Z" fill="#424928"/>
<path d="M27.5004 108.192L30.617 106.133L31.4504 107.433L23.817 112.5L21.8587 109.533C20.8087 107.942 20.9337 106.392 22.4337 105.367C22.6966 105.168 22.9961 105.024 23.315 104.942C23.6338 104.86 23.9658 104.841 24.2918 104.888C24.6178 104.934 24.9314 105.045 25.2146 105.213C25.4978 105.381 25.745 105.603 25.942 105.867L27.6087 101.55L28.5837 103.025L26.8754 107.192L27.5004 108.192ZM26.4087 108.908L25.3254 107.242C25.2383 107.057 25.1123 106.892 24.956 106.76C24.7998 106.628 24.6169 106.531 24.4198 106.476C24.2228 106.421 24.0161 106.409 23.814 106.441C23.6118 106.473 23.4189 106.548 23.2484 106.661C23.0778 106.774 22.9336 106.922 22.8256 107.096C22.7176 107.27 22.6483 107.465 22.6224 107.668C22.5965 107.871 22.6146 108.077 22.6755 108.272C22.7364 108.468 22.8387 108.648 22.9754 108.8L24.0587 110.467L26.4087 108.908Z" fill="#424928"/>
<path d="M21.7423 95C21.9214 94.9372 22.0859 94.8387 22.2257 94.7104C22.3656 94.5822 22.4779 94.4268 22.5558 94.2538C22.6338 94.0807 22.6757 93.8937 22.6791 93.7039C22.6825 93.5142 22.6473 93.3257 22.5757 93.15C22.2423 92.1583 21.509 91.8667 20.2673 92.3167L14.584 94.25L14.084 92.7667L19.7923 90.8333C21.8673 90.1333 23.334 90.9 23.959 92.6917C24.1194 93.0531 24.2034 93.4439 24.2055 93.8393C24.2077 94.2348 24.128 94.6264 23.9714 94.9896C23.8149 95.3527 23.5849 95.6796 23.2959 95.9496C23.007 96.2195 22.6653 96.4268 22.2923 96.5583L21.7423 95Z" fill="#424928"/>
<path d="M21.8415 84.65C22.2831 87.1 20.6165 89.1833 17.9165 89.65C15.2165 90.1167 12.9165 88.7583 12.4831 86.3167C12.0498 83.875 13.6915 81.775 16.4081 81.3167C19.1248 80.8583 21.3998 82.2 21.8415 84.65ZM13.8581 86.0917C14.1415 87.6833 15.7165 88.4667 17.6415 88.125C19.5665 87.7833 20.7581 86.4583 20.4748 84.9C20.1915 83.3417 18.6081 82.5 16.6665 82.85C14.7248 83.2 13.5748 84.4917 13.8581 86.0917Z" fill="#424928"/>
<path d="M17.2246 79.5833L11.6663 79.6666V78.1083L17.0329 78.0249C18.8079 78.0249 19.6163 77.2333 19.5913 75.8499C19.5663 74.4666 18.7579 73.7416 16.9663 73.7666L11.5996 73.85V72.2916L17.1496 72.2C19.6496 72.2 20.9746 73.625 21.0163 75.8333C21.0579 78.0416 19.7579 79.5416 17.2246 79.5833Z" fill="#424928"/>
<path d="M17.4341 68.5416L21.1341 69.0583L20.9174 70.5999L11.8008 69.3333L12.2841 65.8333C12.5508 63.9499 13.6674 62.8583 15.4508 63.1083C15.7825 63.1323 16.1061 63.2223 16.4025 63.373C16.699 63.5237 16.9625 63.732 17.1774 63.9858C17.3924 64.2396 17.5546 64.5337 17.6545 64.8509C17.7543 65.1681 17.7899 65.5021 17.7591 65.8333L21.9258 63.7083L21.6674 65.4166L17.5841 67.4416L17.4341 68.5416ZM16.1424 68.3333L16.4091 66.3833C16.4691 66.1878 16.4855 65.9816 16.4572 65.7791C16.429 65.5766 16.3567 65.3828 16.2455 65.2112C16.1343 65.0397 15.9869 64.8946 15.8136 64.7861C15.6403 64.6776 15.4453 64.6084 15.2424 64.5833C14.4091 64.4666 13.7591 64.9749 13.6174 65.9999L13.3341 67.9749L16.1424 68.3333Z" fill="#424928"/>
<path d="M24.2504 55.6584L23.9004 56.8084L16.1087 59.3667L22.5004 61.3167L22.0671 62.7584L13.2754 60.0751L13.7087 58.6667L21.1087 56.2751L15.0004 54.4167L15.4421 52.9834L24.2504 55.6584Z" fill="#424928"/>
<path d="M19.2243 44.7166L20.466 45.3166L18.5243 49.3582L20.716 50.4082L22.4993 46.7499L23.7327 47.3332L21.9743 50.9999L24.3493 52.1416L26.291 48.0999L27.5493 48.7082L24.916 54.1666L16.666 50.1416L19.2243 44.7166Z" fill="#424928"/>
<path d="M23.774 37.5999L24.699 36.2333L27.4156 42.0666L30.4656 44.1666L29.6323 45.4499L26.5906 43.3916L20.1406 43.0666L21.0573 41.6666L25.8323 41.9166L23.774 37.5999Z" fill="#424928"/>
<path opacity="0.57" d="M39.5923 32.2917C37.759 34.1667 33.334 34.1667 33.334 34.1667C33.334 34.1667 33.334 29.7417 35.1423 27.9001C36.9506 26.0584 38.759 26.2334 39.9923 27.4917C41.2257 28.7501 41.434 30.4501 39.5923 32.2917Z" fill="#8E9373"/>
<path d="M41.1751 27.5C39.5463 28.2549 38.0757 29.3126 36.8418 30.6167" stroke="#424928" stroke-width="0.416667"/>
<path d="M39.5409 32.2417C38.4614 33.1276 37.1462 33.678 35.7576 33.825C35.2062 33.9231 34.6498 33.9899 34.0909 34.025H33.5659H33.4492V33.9084C33.4492 33.7834 33.4492 33.6084 33.4492 33.3834C33.4743 32.8083 33.5328 32.2351 33.6242 31.6667C33.7749 30.2805 34.3217 28.967 35.1992 27.8834C35.862 27.1209 36.7933 26.6433 37.7992 26.55C38.2013 26.5514 38.5987 26.6365 38.9661 26.8001C39.3334 26.9637 39.6626 27.2021 39.9326 27.5C40.2245 27.7738 40.4556 28.106 40.6107 28.475C40.7657 28.844 40.8413 29.2415 40.8326 29.6417C40.7501 30.6416 40.2879 31.572 39.5409 32.2417V32.2417Z" stroke="#424928" stroke-width="0.416667"/>
<path d="M38.4245 31.0749C38.4245 31.0749 38.9578 29.6166 38.4245 29.0832C37.8911 28.5499 36.7578 29.0832 36.7578 29.0832" stroke="#424928" stroke-width="0.416667"/>
<path opacity="0.57" d="M111.374 116.933C112.999 114.9 117.399 114.433 117.399 114.433C117.399 114.433 117.907 118.825 116.282 120.858C114.657 122.892 112.874 122.883 111.515 121.8C110.157 120.717 109.749 118.967 111.374 116.933Z" fill="#8E9373"/>
<path d="M110.334 121.908C111.87 120.981 113.216 119.771 114.301 118.342" stroke="#424928" stroke-width="0.416667"/>
<path d="M111.433 116.983C112.406 115.993 113.645 115.304 115 115C115.548 114.843 116.104 114.715 116.666 114.617L117.183 114.542H117.3C117.296 114.58 117.296 114.619 117.3 114.658C117.3 114.775 117.3 114.958 117.3 115.175C117.329 115.75 117.329 116.325 117.3 116.9C117.307 118.298 116.907 119.667 116.15 120.842C115.576 121.671 114.704 122.247 113.716 122.45C112.914 122.512 112.119 122.267 111.49 121.767C110.861 121.266 110.444 120.545 110.325 119.75C110.318 119.238 110.412 118.731 110.602 118.256C110.792 117.781 111.075 117.348 111.433 116.983Z" stroke="#424928" stroke-width="0.416667"/>
<path d="M112.667 118.025C112.667 118.025 112.309 119.525 112.892 119.992C113.476 120.458 114.559 119.808 114.559 119.808" stroke="#424928" stroke-width="0.416667"/>
</g>
</svg>
